<?xml version="1.0" standalone="no"?><svg xmlns="http://www.w3.org/2000/svg" viewBox="0 0 1440 320"><path fill="#5000ca" fill-opacity="1" d="M0,288L24,272C48,256,96,224,144,218.7C192,213,240,235,288,250.7C336,267,384,277,432,288C480,299,528,309,576,288C624,267,672,213,720,208C768,203,816,245,864,234.7C912,224,960,160,1008,149.3C1056,139,1104,181,1152,176C1200,171,1248,117,1296,85.3C1344,53,1392,43,1416,37.3L1440,32L1440,320L1416,320C1392,320,1344,320,1296,320C1248,320,1200,320,1152,320C1104,320,1056,320,1008,320C960,320,912,320,864,320C816,320,768,320,720,320C672,320,624,320,576,320C528,320,480,320,432,320C384,320,336,320,288,320C240,320,192,320,144,320C96,320,48,320,24,320L0,320Z"></path></svg>