<svg width="21000" height="29700" xmlns="http://www.w3.org/2000/svg">
 <defs>
  <path id="svg_1" d="m0,0z"/>
  <path id="svg_2" d="m37.993,189.838l133.007,16.1693c4.16144,-34.0063 15.5022,-60.0073 34.0063,-78.0031c18.4882,-18.0117 40.8202,-27.0017 66.996,-27.0017c28.1612,0 51.8274,10.8324 71.1574,32.3385c19.1712,21.4902 28.8442,50.4932 28.8442,87.152c0,34.5145 -9.16469,62.0086 -27.6688,82.1805c-18.5041,20.156 -40.9949,30.3213 -67.6631,30.3213c-17.5035,0 -38.3424,-3.49434 -62.6757,-10.3242l15.1686,111.326c37.0082,-1.00065 65.1694,7.16339 84.6742,24.3333c19.4889,17.0111 29.1618,39.8354 29.1618,68.3302c0,24.1745 -7.16339,43.3457 -21.5061,57.8472c-14.3268,14.3268 -33.3233,21.4902 -57.1642,21.4902c-23.4915,0 -43.5045,-8.16404 -59.9914,-24.4921c-16.6775,-16.344 -26.6681,-40.169 -30.3372,-71.5069l-126.003,21.5061c8.83114,43.6633 21.9984,78.4955 39.8354,104.655c17.6623,26.001 42.5039,46.5065 74.1594,61.5003c31.6714,14.8351 67.3454,22.332 106.673,22.332c67.3295,0 121.333,-21.4902 161.994,-64.6611c33.498,-35.3246 50.3343,-75.3347 50.3343,-119.824c0,-63.0093 -34.3239,-113.502 -103.162,-151.003c40.9949,-8.83114 73.667,-28.5106 98.3338,-59.1655c24.4921,-30.6708 36.8335,-67.679 36.8335,-111.009c0,-62.8345 -22.9991,-116.504 -68.8385,-160.835c-45.8235,-44.3304 -102.829,-66.4877 -171.159,-66.4877c-64.677,0 -118.331,18.6629 -160.835,56.1635c-42.6627,37.3259 -67.3295,86.1672 -74.1753,146.667l0.0004,0.0009z"/>
  <path id="svg_3" d="m73.0033,716.004l263.667,0c59.4923,0 104.828,-4.50367 135.997,-13.6723c41.8346,-12.3362 77.8295,-34.3362 107.662,-66.0001c30.0053,-31.5027 52.6734,-70.1698 68.3384,-116.001c15.5037,-45.6587 23.3362,-102.168 23.3362,-169.158c0,-59.0085 -7.33719,-109.666 -22,-152.342c-17.8419,-52.1666 -43.332,-94.3353 -76.5049,-126.495c-24.9948,-24.4995 -58.8357,-43.5048 -101.327,-57.1656c-31.8367,-10.1707 -74.3394,-15.1697 -127.669,-15.1697l-271.499,0l0,716.004l-0.0007,-0.0003zm144.9937,-120.9997l0,-474.003l107.501,0c40.1645,0 69.1677,2.33822 86.9981,6.83038c23.5089,5.8398 42.8367,15.8377 58.1677,29.8325c15.5037,14.0063 28.0011,37.0085 37.665,69.0064c9.83667,31.998 14.6744,75.8253 14.6744,131.159c0,55.3341 -4.83771,97.6756 -14.6744,127.335c-9.66389,29.6713 -23.3247,52.6734 -40.8325,69.3405c-17.4964,16.4943 -39.6577,27.8283 -66.6567,33.6566c-20.0074,4.50367 -59.5038,6.8419 -118.167,6.8419l-64.6755,0l-0.0001,0.00072z"/>
  <path id="svg_4" d="m524.004,365.005l-135.007,-24.0042c-4.49216,26.8378 -14.8356,46.9949 -30.9959,60.6671c-16.1718,13.4995 -36.9969,20.3299 -62.6713,20.3299c-34.1634,0 -61.4965,-11.8293 -81.8263,-35.4996c-20.3414,-23.6702 -30.5006,-63.1666 -30.5006,-118.662c0,-61.6692 10.332,-105.174 30.9959,-130.664c20.6639,-25.5016 48.331,-38.1718 83.0012,-38.1718c25.9969,0 47.3289,7.49845 63.8347,22.3341c16.6671,14.8356 28.3351,40.3373 35.1655,76.6661l134.995,-23.0021c-13.9948,-62.0033 -40.8325,-108.837 -80.4902,-140.501c-39.6692,-31.6639 -92.8379,-47.5017 -159.667,-47.5017c-75.6756,0 -136.17,24.0042 -181.172,71.8399c-45.1634,47.997 -67.6703,114.331 -67.6703,199.164c0,85.8347 22.6681,152.503 67.8431,200.339c45.1634,47.8242 106.326,71.6672 183.499,71.6672c62.9938,0 113.168,-13.6723 150.499,-40.8441c37.1582,-27.1603 63.8347,-68.4996 80.1677,-124.156l-0.0005,-0.0008z"/>
  <path id="svg_5" d="m544,0l-136.999,0l0,264.496c0,56.0022 -3.00629,92.1698 -8.83457,108.503c-6.00106,16.5058 -15.5037,29.1645 -28.8304,38.3331c-13.3382,9.16861 -29.3372,13.6723 -47.997,13.6723c-24.0042,0 -45.509,-6.50787 -64.5028,-19.5006c-19.1665,-13.0042 -32.1707,-30.3393 -39.1739,-51.6713c-7.16441,-21.4932 -10.666,-61.1624 -10.666,-119.169l0,-234.663l-136.999,0l0,519.005l127.001,0l0,-76.1708c45.4975,58.1677 102.663,87.1709 171.831,87.1709c30.3393,0 58.1677,-5.50577 83.3353,-16.333c25.3404,-11 44.3341,-24.8336 57.1656,-41.6734c13.0042,-17.0011 22,-36.1676 26.999,-57.6609c5.17174,-21.5048 7.67122,-52.1666 7.67122,-92.1698l0,-322.168l-0.00045,-0.0005z"/>
  <path id="svg_6" d="m67.0022,0l0,716.004l136.999,0l0,-379.841l160.497,182.842l168.997,0l-176.991,-189.673l189.995,-329.333l-147.999,0l-130.998,234.168l-63.5007,-68.0043l0,-166.164l-136.999,0l-0.0003,0.0013z"/>
  <path id="svg_7" d="m43.9976,183.837l136.996,14.1682c4.00267,-31.0048 15.5024,-55.672 34.6739,-73.8429c19.3303,-18.155 41.5039,-27.161 66.6635,-27.161c28.6699,0 53.0036,11.6586 72.8422,35.1663c19.8227,23.4919 29.8294,58.8329 29.8294,105.991c0,44.347 -9.83195,77.512 -29.6706,99.6696c-19.6639,22.1735 -45.3318,33.165 -77.0037,33.165c-39.5025,0 -75.0024,-17.329 -106.325,-51.987l-111.011,15.9948l69.999,371.994l363.004,0l0,-127.99l-258.823,0l-21.6652,-121.843c30.4965,15.1688 61.819,22.8406 93.8245,22.8406c61.0089,0 112.662,-22.1735 155.008,-66.6635c42.4886,-44.3311 63.6615,-102.005 63.6615,-173.004c0,-59.1664 -17.1702,-111.836 -51.3358,-158.328c-46.666,-63.3438 -111.328,-94.9998 -194.002,-94.9998c-66.1711,0 -120.159,17.8214 -161.822,53.3213c-41.8374,35.6746 -66.6794,83.3413 -74.8435,143.508l-0.0002,0.0004z"/>
  <path id="svg_8" d="m505.996,127.003l0,-127.003l-480.996,0c5.16209,48.333 20.839,93.9977 46.84,137.169c25.9852,43.171 77.4949,100.494 154.164,172.001c61.8339,57.6566 99.668,96.8249 113.661,117.33c18.8377,28.3359 28.3359,56.3383 28.3359,84.1659c0,30.6708 -8.16404,54.1622 -24.6668,70.665c-16.3281,16.5028 -38.9936,24.6668 -67.8378,24.6668c-28.6695,0 -51.335,-8.65643 -68.3302,-26.001c-16.8364,-17.1699 -26.4934,-45.8235 -29.1618,-85.9925l-137.01,13.6597c8.16404,75.6683 33.6727,130.005 76.6689,163.011c42.9962,32.8309 96.6661,49.3178 161.168,49.3178c70.665,0 126.161,-19.1553 166.664,-57.323c40.3437,-38.1677 60.4997,-85.6748 60.4997,-142.505c0,-32.3385 -5.82919,-62.9934 -17.3287,-92.3299c-11.4995,-29.1618 -29.8289,-59.6738 -55.0041,-91.6628c-16.5028,-21.3313 -46.6653,-51.8433 -89.9951,-91.6787c-43.5045,-39.8196 -70.9986,-66.1542 -82.4981,-79.3215c-11.6743,-13.0085 -20.9978,-25.8422 -28.1771,-38.1677l273.003,0l0.0012,-0.0011z"/>
  <path id="svg_9" d="m371.997,163.998l136.999,-23.0021c-17.4964,-50.1624 -45.3247,-88.3342 -83.1625,-114.665c-37.999,-26.1697 -85.5007,-39.3352 -142.332,-39.3352c-90.1656,0 -157.007,29.4985 -200.166,88.507c-34.1634,47.3289 -51.3373,106.994 -51.3373,179.168c0,85.996 22.5069,153.494 67.3363,202.159c44.8294,48.8378 101.661,73.1761 170.333,73.1761c77.0002,0 137.829,-25.5016 182.497,-76.5049c44.5069,-51.0032 65.8389,-129.167 63.8347,-234.502l-342.993,0c0.99058,-40.6598 11.9906,-72.3352 33.1613,-95.0033c20.9979,-22.6566 47.3289,-33.9906 78.6703,-33.9906c21.4932,0 39.4964,5.82828 53.998,17.4964c14.6629,11.6681 25.6629,30.5006 33.1613,56.4975l-0.0001,-0.0009zm8.00535,139.0039c-1.0021,39.8304 -11.1728,70.1698 -30.6734,90.8337c-19.5006,20.8367 -43.1593,31.1687 -71.1604,31.1687c-29.8325,0 -54.5048,-11 -74.0054,-32.8388c-19.5006,-21.8273 -28.9917,-51.6598 -28.6577,-89.1635l204.497,0l-0.0001,-0.0001z"/>
  <path id="svg_10" d="m68.0043,519.005l127.992,0l0,-76.1708c16.6671,25.9969 39.0011,46.9949 67.3363,63.1666c28.3351,15.999 59.8378,24.0042 94.3353,24.0042c60.1603,0 111.336,-23.6702 153.332,-71.0106c41.9959,-47.1561 63.0054,-113.156 63.0054,-197.494c0,-86.8368 -21.1707,-154.173 -63.5007,-202.331c-42.3414,-48.1697 -93.6672,-72.174 -154,-72.174c-28.6692,0 -54.6661,5.66703 -78.0023,17.1739c-23.1634,11.3341 -47.8357,30.8346 -73.4986,58.5017l0,-259.67l-136.999,0l0,716.004l-0.0004,0zm134.9954,-251.503c0,-58.5017 11.4953,-101.672 34.6702,-129.674c23.0021,-27.8283 51.1645,-41.8231 84.1646,-41.8231c31.8367,0 58.3289,12.8314 79.4996,38.4943c21.1707,25.6629 31.6639,67.6703 31.6639,126.172c0,54.6661 -10.8272,95.1646 -32.666,121.657c-21.666,26.5037 -48.665,39.6692 -80.8358,39.6692c-33.4954,0 -61.3237,-12.9927 -83.3237,-39.0011c-22.1728,-25.9969 -33.1728,-64.4912 -33.1728,-115.494l0,-0.0003z"/>
  <path id="svg_11" d="m61.9927,519.004l126.003,0l0,-70.8398c45.1723,54.4958 99.0009,81.831 161.502,81.831c33.1644,0 62.0086,-6.82984 86.3419,-20.4895c24.4921,-13.6756 44.4893,-34.3398 59.9914,-62.0086c22.8403,27.6688 47.5071,48.333 73.8417,62.0086c26.3346,13.6597 54.4958,20.4895 84.4994,20.4895c37.993,0 70.1568,-7.65578 96.6661,-23.1579c26.3346,-15.5022 45.9982,-38.1677 58.9908,-68.1713c9.49824,-21.9984 14.168,-57.8313 14.168,-107.34l0,-331.327l-136.994,0l0,296.161c0,51.5097 -4.66971,84.6742 -14.168,99.5092c-12.6749,19.4889 -32.3385,29.3366 -58.6731,29.3366c-19.1553,0 -37.3259,-5.84507 -54.3211,-17.5035c-16.8364,-11.8331 -29.1777,-29.003 -36.6747,-51.5097c-7.49694,-22.6655 -11.166,-58.3237 -11.166,-107.165l0,-248.829l-136.994,0l0,283.994c0,50.3343 -2.50957,83.0064 -7.33811,97.5079c-4.82854,14.6603 -12.3414,25.6675 -22.6655,32.8309c-10.1653,7.16339 -24.1745,10.6736 -41.662,10.6736c-21.1725,0 -40.169,-5.67036 -57.0054,-17.0111c-16.9952,-11.4995 -29.003,-27.8276 -36.3411,-49.3337c-7.32223,-21.4902 -10.9913,-57.1642 -10.9913,-106.831l0,-251.831l-137.01,0l0,519.004l0.00001,0.0018z"/>
  <path id="svg_12" d="m74.996,0l0,716.004l145.004,0l0,-317.169l292.163,317.169l194.338,0l-270.163,-278.836l284.158,-437.167l-187,0l-196.998,336.163l-116.497,-119.664l0,-216.499l-145.004,0l-0.001,-0.001z"/>
  <path id="svg_13" d="m310.996,0l0,143.998l-292,0l0,119.506l309.678,455.503l115.329,0l0,-455.01l88.9944,0l0,-119.999l-88.9944,0l0,-143.998l-133.007,0zm0,263.997l0,244.508l-163.662,-244.508l163.662,0z"/>
  <path id="svg_14" d="m59.0067,-33.0056l156.991,-18.9965c2.6684,-18.5041 8.67231,-31.1631 17.9958,-38.1677c13.1673,-9.8318 33.6727,-14.8351 61.6751,-14.8351c35.8328,0 62.6598,5.33681 80.6715,16.1693c11.9919,7.16339 21.1566,18.6629 27.3194,34.6734c4.17732,11.3248 6.33746,32.4973 6.33746,62.9934l0.6671,75.843c-41.3285,-56.513 -93.3306,-84.6742 -155.99,-84.6742c-69.6803,0 -125.002,29.4954 -165.679,88.3273c-31.9891,46.5065 -47.9995,104.512 -47.9995,173.669c0,87.009 20.9978,153.338 62.8345,199.177c41.8368,45.8235 93.9977,68.8226 156.34,68.8226c64.1687,0 117.171,-28.1612 158.834,-84.4994l0,73.5082l128.004,0l0,-465.335c0,-61.1668 -5.00326,-107.006 -15.1686,-137.169c-10.0065,-30.3372 -24.1745,-54.0034 -42.5039,-71.3321c-18.1706,-17.1699 -42.5039,-30.8296 -72.9999,-40.5025c-30.496,-9.8318 -68.9973,-14.6603 -115.504,-14.6603c-87.9938,0 -150.336,15.1527 -187.169,45.3311c-36.8335,30.3372 -55.1629,68.489 -55.1629,114.995c0,4.49499 0.17472,10.1653 0.50827,16.6616l-0.00133,0.0009zm123.00233,303.0061c0,-55.0041 10.6577,-95.173 31.8302,-120.666c21.3313,-25.5087 47.6659,-38.3424 78.8291,-38.3424c33.3392,0 61.6592,13.1673 84.6742,39.3431c23.1579,26.1599 34.6575,64.8358 34.6575,116.171c0,53.654 -10.9913,93.4894 -33.1644,119.49c-21.9984,26.001 -50.0008,39.0095 -83.8323,39.0095c-32.8309,0 -59.8326,-12.8337 -81.1639,-38.3424c-21.1725,-25.4928 -31.8302,-64.3276 -31.8302,-116.663l-0.0002,0.0002z"/>
  <path id="svg_15" d="m547.997,0l-127.001,0l0,76.1708c-21.1592,-29.6713 -46.3268,-51.8326 -75.1572,-66.841c-28.8419,-14.8241 -58.0064,-22.3341 -87.3436,-22.3341c-59.8263,0 -110.991,24.0042 -153.666,72.174c-42.4912,48.1582 -63.8232,115.16 -63.8232,201.329c0,88.0002 20.6639,155.002 62.1645,200.834c41.5006,45.8315 93.8285,68.6724 157.168,68.6724c57.9949,0 108.33,-24.177 150.66,-72.3352l0,258.334l136.999,0l0,-716.004l-0.0005,0.0001zm-365.9955,269.4949c0,-55.4954 7.6597,-95.6599 22.8294,-120.493c22.1728,-36.0064 53.0074,-53.998 92.6651,-53.998c31.5027,0 58.3404,13.4995 80.3405,40.4985c22.1613,26.999 33.1613,67.1635 33.1613,120.827c0,59.8378 -10.666,102.836 -32.1592,129.167c-21.5048,26.3425 -48.8378,39.5079 -82.3332,39.5079c-32.5048,0 -59.6766,-13.0042 -81.6766,-39.0011c-21.8273,-26.0084 -32.8273,-64.8368 -32.8273,-116.508l0,-0.0003z"/>
  <path id="svg_16" d="m73.0033,716.004l286.335,0c56.8315,0 99.0002,-2.33822 126.829,-7.00316c28.0011,-4.83771 52.8347,-14.6629 74.8347,-29.4985c22,-14.9969 40.3373,-34.8315 55.0001,-59.665c14.6629,-24.8336 22,-52.8347 22,-83.6693c0,-33.3341 -8.99583,-64.1687 -26.999,-91.9971c-18.0032,-28.0011 -42.5027,-48.8378 -73.3373,-62.8326c43.5048,-12.843 76.8389,-34.509 100.336,-65.1708c23.3362,-30.6618 35.0043,-66.6682 35.0043,-108.169c0,-32.666 -7.50996,-64.33 -22.6681,-95.1646c-15.1697,-30.8346 -35.8336,-55.4954 -62.176,-74.0054c-26.1582,-18.3257 -58.4902,-29.6597 -96.996,-33.9906c-24.0042,-2.49948 -82.1604,-4.16964 -174.33,-4.83771l-243.832,0l0,716.004l-0.0007,-0.00023zm144.9937,-119.00777l0,-165l94.6693,0c56.1635,0 91.1677,0.84084 104.84,2.49948c24.6608,2.83351 44.1613,11.3341 58.3289,25.5016c14.1676,14.1676 21.1707,32.666 21.1707,55.6682c0,22.1728 -6.17383,40.0032 -18.3372,53.8368c-12.1634,13.8335 -30.3393,22.1613 -54.3321,24.9948c-14.3403,1.67016 -55.5069,2.49948 -123.338,2.49948l-83.0012,0l-0.0004,-0.00036zm0,-283.996l0,-191.999l134.004,0c51.9938,0 85.1667,1.49739 99.1615,4.3309c21.5048,3.99687 39.0011,13.4995 52.5006,28.6692c13.4995,15.3309 20.3414,35.4996 20.3414,61.0012c0,21.666 -5.17174,39.8304 -15.6765,54.8273c-10.332,15.0084 -25.4901,26.0084 -45.1634,32.8388c-19.6618,6.83038 -62.4986,10.332 -128.326,10.332l-116.842,0l0.0004,-0.0004z"/>
  <path id="svg_17" d="m393.002,0l-136.994,0l0,518.337c-50.0008,-46.9988 -109.007,-81.831 -177.004,-104.338l0,125.002c35.8328,11.6584 74.6676,33.8315 116.489,66.6624c42.0115,32.6721 70.6809,70.8398 86.3419,114.328l111.168,0l0,-719.992l-0.0009,0.0006z"/>
  <path id="svg_18" d="m35.0069,231.992l140.997,14.0091c8.49759,-47.1736 25.4928,-81.6722 51.335,-103.829c25.8263,-22.1732 60.6585,-33.1644 104.497,-33.1644c46.3317,0 81.3386,9.8318 104.83,29.4954c23.5074,19.6636 35.3405,42.6627 35.3405,68.9973c0,16.9952 -5.00326,31.3379 -14.8351,43.3298c-9.8318,11.8331 -27.1764,22.1732 -51.8433,30.8296c-16.8205,6.00391 -55.1629,16.344 -115.154,31.3379c-77.1772,19.33 -131.339,42.9962 -162.503,71.1733c-43.8381,39.5019 -65.6777,87.6602 -65.6777,144.491c0,36.4999 10.3401,70.8398 30.8455,102.67c20.6642,31.8302 50.3343,56.0047 89.1691,72.6663c38.8189,16.6616 85.5001,25.0004 140.488,25.0004c89.5027,0 157.007,-19.8383 202.163,-59.6579c45.347,-39.8354 69.0132,-92.8382 71.348,-159.342l-144.999,-5.00326c-6.17862,37.0082 -19.3459,63.5016 -39.5019,79.6709c-20.1719,16.1693 -50.5091,24.3333 -90.8369,24.3333c-41.662,0 -74.3341,-8.67231 -97.8415,-26.001c-15.1686,-11.166 -22.8244,-26.001 -22.8244,-44.664c0,-16.9952 7.16339,-31.4967 21.4902,-43.5045c18.1706,-15.5022 62.3422,-31.4967 132.499,-48.1583c70.1727,-16.5028 122,-33.8315 155.514,-51.5097c33.6568,-17.8211 59.9914,-41.9956 78.9879,-72.8252c19.0124,-30.8296 28.5106,-68.8385 28.5106,-114.011c0,-40.9949 -11.3407,-79.4962 -34.1651,-115.329c-22.8403,-35.8328 -55.0041,-62.501 -96.6661,-79.8297c-41.6779,-17.5035 -93.68,-26.1599 -155.847,-26.1599c-90.4875,0 -159.993,20.8231 -208.485,62.6598c-48.5078,41.662 -77.336,102.495 -86.8343,182.325l-0.0005,-0.00024z"/>
  <path id="svg_19" d="m203.005,0l-137.01,0l0,519.004l127.003,0l0,-73.667c21.8396,34.8322 41.5032,57.6566 59.0067,68.489c17.4876,10.8324 37.3259,16.1693 59.499,16.1693c31.322,0 61.5003,-8.65643 90.5033,-25.8263l-42.5039,-119.665c-23.1738,14.9939 -44.664,22.4908 -64.5023,22.4908c-19.33,0 -35.674,-5.32092 -49.0001,-15.8357c-13.342,-10.6577 -23.8409,-29.6542 -31.4967,-57.323c-7.67166,-27.6688 -11.4995,-85.6748 -11.4995,-173.843l0,-159.993l0.0005,-0.0001z"/>
  <path id="svg_20" d="m173.996,359.004l-123.995,22c13.9948,50.6577 38.1603,88.1614 72.3352,112.5c34.1634,24.3268 84.9939,36.5016 152.33,36.5016c61.1624,0 106.833,-7.17593 136.838,-21.6775c29.8325,-14.4901 50.9917,-32.8273 63.1666,-55.1614c12.1634,-22.3341 18.3257,-63.1666 18.3257,-122.832l-1.99267,-160.001c0,-45.4975 2.16545,-79.1656 6.49635,-100.832c4.3309,-21.666 12.4974,-44.8294 24.4995,-69.5017l-135.997,0c-3.50158,8.99583 -8.00525,22.3341 -13.1655,40.0032c-2.16545,8.16651 -3.83561,13.4995 -4.83771,15.999c-23.3362,-23.0021 -48.331,-40.1645 -74.996,-51.6713c-26.665,-11.4953 -55.0001,-17.3351 -85.1667,-17.3351c-53.1687,0 -95.1761,14.5016 -125.838,43.5048c-30.6618,28.8304 -46.0043,65.5048 -46.0043,109.827c0,29.176 7.00316,55.3341 21.0095,78.3363c13.9948,22.8409 33.4954,40.4985 58.8242,52.6734c25.1676,12.1634 61.508,22.8294 109.01,31.998c63.9959,12.0021 108.491,23.3362 133.164,33.6681l0,13.8335c0,26.665 -6.49635,45.6587 -19.5006,57.1656c-13.1655,11.3341 -37.8378,17.0011 -74.0054,17.0011c-24.4995,0 -43.4933,-4.83771 -57.1656,-14.6744c-13.8335,-9.66389 -24.8336,-26.8262 -33.3341,-51.3258l-0.00047,0.0006zm184.00647,-111.0026c-17.4964,-5.8398 -45.3362,-12.8314 -83.4965,-20.9979c-38.0106,-8.16651 -63.0054,-16.1718 -74.6735,-23.8315c-17.8304,-12.843 -26.8262,-28.8419 -26.8262,-48.3425c0,-19.3278 7.16441,-35.8336 21.4932,-49.8284c14.3288,-14.0063 32.5048,-20.9979 54.6661,-20.9979c24.6723,0 48.331,8.16651 70.8378,24.3268c16.4943,12.5089 27.4943,27.5058 32.666,45.509c3.50158,11.6566 5.333,33.9906 5.333,66.8295l0,27.333l0.0001,-0.0001z"/>
  <path id="svg_21" d="m40.0032,265.832c0,45.6703 11.1613,89.8316 33.6681,132.507c22.4953,42.8252 54.3321,75.33 95.4986,97.8253c41.1666,22.5069 86.9981,33.8409 137.829,33.8409c78.4975,0 142.666,-25.5016 192.84,-76.5049c50.1624,-51.1645 75.1572,-115.506 75.1572,-193.497c0,-78.6703 -25.3288,-143.841 -75.8253,-195.501c-50.6692,-51.6713 -114.343,-77.507 -191.17,-77.507c-47.5017,0 -92.8379,10.8388 -135.997,32.332c-42.998,21.5048 -75.8368,53.0074 -98.3321,94.6693c-22.5069,41.5006 -33.6681,92.1698 -33.6681,151.835l-0.0004,0.0004zm140.9964,-7.33759c0,-51.4985 12.1634,-90.995 36.5016,-118.328c24.4995,-27.5058 54.4933,-41.1666 90.3269,-41.1666c35.6723,0 65.6776,13.6608 89.8431,41.1666c24.1655,27.333 36.3289,67.1635 36.3289,119.33c0,50.842 -12.1634,90.0044 -36.3289,117.337c-24.1655,27.4943 -54.1708,41.1666 -89.8431,41.1666c-35.8336,0 -65.8274,-13.6723 -90.3269,-41.1666c-24.3383,-27.333 -36.5016,-66.8295 -36.5016,-118.34l0,0.001z"/>
  <path id="svg_22" d="m506.997,540.669l-132.991,-14.6762c-3.17667,27.3352 -11.6743,47.5071 -25.3339,60.4997c-13.6756,13.0085 -31.3379,19.5048 -53.1775,19.5048c-28.9871,0 -53.4951,-12.9926 -73.4923,-38.9936c-19.9971,-26.001 -32.4973,-80.1633 -37.6753,-162.503c34.181,40.3278 76.5101,60.4997 127.337,60.4997c57.1642,0 106.339,-21.8396 147.175,-65.5029c40.8361,-43.8381 61.1668,-100.16 61.1668,-169.332c0,-73.3334 -21.5061,-132.34 -64.5023,-176.671c-42.9962,-44.3304 -98.175,-66.4877 -165.505,-66.4877c-72.1581,0 -131.657,28.1612 -178.164,84.4994c-46.5065,56.3224 -69.8391,148.493 -69.8391,276.831c0,131.498 24.3333,226.322 72.8411,284.503c48.4919,58.1648 111.501,87.152 188.996,87.152c54.3369,0 99.3345,-15.3274 135.008,-45.9982c35.6581,-30.496 58.3237,-75.0012 68.1555,-133.325l0.001,0zm-310.997,-299.671c0,-44.664 10.3401,-79.1626 30.8296,-103.496c20.5054,-24.3333 43.8381,-36.4999 70.3315,-36.4999c25.3339,0 46.5065,9.99063 63.5016,29.8289c16.8364,19.9971 25.3339,52.6692 25.3339,98.0003c0,46.6653 -9.16469,80.8304 -27.3352,102.67c-18.3294,21.6649 -40.9949,32.4973 -68.3302,32.4973c-26.4934,0 -48.6666,-10.3401 -66.996,-31.1631c-18.1706,-20.6642 -27.3352,-51.335 -27.3352,-91.8375z"/>
  <path id="svg_23" d="m71.9992,589.002l0,127.003l136.994,0l0,-127.003l-136.994,0zm0,-589.002l0,519.004l136.994,0l0,-519.004l-136.994,0z"/>
  <style type="text/css">
   <![CDATA[
    @font-face { font-family:"Arial";src:url("#FontID0") format(svg)}
    .fil0 {fill:#332C2B}
    .fil1 {fill:#FEFEFE}
    .fnt2 {font-weight:bold;font-size:629.58px;font-family:'Arial'}
    .fnt1 {font-weight:bold;font-size:629.59px;font-family:'Arial'}
    .fnt0 {font-weight:bold;font-size:868.18px;font-family:'Arial'}
   ]]>
  </style>
 </defs>
 <g>
  <title>background</title>
  <rect fill="none" id="canvas_background" height="402" width="582" y="-1" x="-1"/>
 </g>
 <g>
  <title>Layer 1</title>
  <metadata id="CorelCorpID_0Corel-Layer"/>
  <g id="_2395689166384">
   <path id="svg_24" d="m11480,26037l-2060,0c-139,0 -251,112 -251,251l0,744c0,139 112,251 251,251l2060,0c139,0 251,-112 251,-251l0,-744c0,-139 -112,-251 -251,-251z" class="fil0"/>
   <path id="svg_25" d="m5944,6197l-559,0c-169,0 -305,136 -305,305l0,3667c0,168 136,304 305,304l559,0c169,0 305,-136 305,-304l0,-3667c0,-169 -136,-305 -305,-305z" class="fil0"/>
   <path id="svg_26" d="m5944,20047l-559,0c-169,0 -305,136 -305,304l0,3667c0,169 136,305 305,305l559,0c169,0 305,-136 305,-305l0,-3667c0,-168 -136,-304 -305,-304z" class="fil0"/>
   <path id="svg_27" d="m14996,6197l560,0c168,0 304,136 304,305l0,3667c0,168 -136,304 -304,304l-560,0c-168,0 -304,-136 -304,-304l0,-3667c0,-169 136,-305 304,-305z" class="fil0"/>
   <path id="svg_28" d="m14996,20047l560,0c168,0 304,136 304,304l0,3667c0,169 -136,305 -304,305l-560,0c-168,0 -304,-136 -304,-305l0,-3667c0,-168 136,-304 304,-304z" class="fil0"/>
   <path id="svg_29" d="m15396,11148l1361,300c0,0 -346,-1350 -1350,-1350c0,0 0,-2805 0,-4305c0,-1500 -1604,-2424 -2043,-2701c-407,-257 -2586,-216 -2894,-208c-308,-8 -2486,-49 -2894,208c-438,277 -2043,1201 -2043,2701c0,1500 0,4305 0,4305c-1004,0 -1350,1350 -1350,1350l1362,-300l0,12858c0,0 -46,1154 923,1523c1289,540 3530,725 3965,757l0,5c0,0 13,-1 37,-3c24,2 38,3 38,3l0,-5c434,-32 2676,-217 3964,-757c970,-369 924,-1523 924,-1523l0,-12858z" class="fil0"/>
   <path id="svg_30" d="m5764,10923l0,4744l710,415c0,0 0,-2943 0,-3341c0,-398 -710,-1818 -710,-1818z" class="fil1"/>
   <path id="svg_31" d="m5764,16169l710,398c0,0 0,2372 0,2683c0,312 -710,606 -710,606l0,-3687z" class="fil1"/>
   <path id="svg_32" d="m5764,20272l710,-416c0,0 0,1178 0,1628c0,450 -710,1385 -710,1385l0,-2597z" class="fil1"/>
   <path id="svg_33" d="m8194,25644l4662,0c38,0 70,32 70,70l0,1153c0,39 -32,70 -70,70l-4662,0c-38,0 -70,-31 -70,-70l0,-1153c0,-38 32,-70 70,-70z" class="fil0"/>
   <path id="svg_34" d="m8153,3825c13,-184 -504,3460 -574,4255c-8,86 60,160 147,160l0,0c76,0 139,-57 147,-132c79,-731 176,-2777 280,-4283z" class="fil1"/>
   <path id="svg_35" d="m7429,13503l248,0c46,0 84,37 84,84l0,7934c0,46 -38,84 -84,84l-248,0c-46,0 -84,-38 -84,-84l0,-7934c0,-47 38,-84 84,-84z" class="fil1"/>
   <path id="svg_36" d="m15176,10923l0,4744l-710,415c0,0 0,-2943 0,-3341c0,-398 710,-1818 710,-1818z" class="fil1"/>
   <path id="svg_37" d="m15176,16169l-710,398c0,0 0,2372 0,2683c0,312 710,606 710,606l0,-3687z" class="fil1"/>
   <path id="svg_38" d="m15176,20272l-710,-416c0,0 0,1178 0,1628c0,450 710,1385 710,1385l0,-2597z" class="fil1"/>
   <path id="svg_39" d="m14345,22436c-568,1025 -3347,1044 -3837,1040l0,-1c0,0 -13,0 -38,0c-24,0 -37,0 -37,0l0,1c-491,4 -3270,-15 -3838,-1040c-138,-139 -588,1593 121,2129c698,528 2314,1004 3717,1004l0,0c12,1 25,0 37,0c13,0 25,1 38,0l0,0c1403,0 3019,-476 3716,-1004c710,-536 260,-2268 121,-2129z" class="fil1"/>
   <path id="svg_40" d="m14691,9590c-1561,-979 -3902,-900 -4221,-885c-318,-15 -2659,-94 -4221,885c-52,156 554,2545 606,2770c0,0 2783,-97 3578,-88l0,2c11,-1 25,-1 37,-1c13,0 26,0 38,1l0,-2c795,-9 3578,88 3578,88c52,-225 657,-2614 605,-2770z" class="fil1"/>
   <path id="svg_41" d="m12787,3825c-13,-184 504,3460 575,4255c7,86 -61,160 -148,160c-75,0 -139,-57 -147,-132c-79,-731 -176,-2777 -280,-4283z" class="fil1"/>
   <path id="svg_42" d="m13511,13503l-248,0c-46,0 -83,37 -83,84l0,7934c0,46 37,84 83,84l248,0c46,0 84,-38 84,-84l0,-7934c0,-47 -38,-84 -84,-84z" class="fil1"/>
   <path id="svg_43" d="m12895,14490l-2408,0c-6,0 -11,2 -17,3c-5,-1 -10,-3 -16,-3l-2408,0c-53,0 -95,42 -95,94c0,52 42,94 95,94l2408,0c6,0 11,-2 16,-3c6,1 11,3 17,3l2408,0c52,0 94,-42 94,-94c0,-52 -42,-94 -94,-94z" class="fil1"/>
   <path id="svg_44" d="m12895,20274l-2408,0c-6,0 -11,2 -17,3c-5,-1 -10,-3 -16,-3l-2408,0c-53,0 -95,42 -95,94c0,52 42,94 95,94l2408,0c6,0 11,-2 16,-3c6,1 11,3 17,3l2408,0c52,0 94,-42 94,-94c0,-52 -42,-94 -94,-94z" class="fil1"/>
  </g>
 </g>
</svg>